<mxfile host="app.diagrams.net" agent="Mozilla/5.0 (Windows NT 10.0; Win64; x64) AppleWebKit/537.36 (KHTML, like Gecko) Chrome/133.0.0.0 Safari/537.36" version="26.0.16">
  <diagram name="Page-1" id="Usq6qBYIRH9b6jlqvri0">
    <mxGraphModel dx="1591" dy="817" grid="1" gridSize="10" guides="1" tooltips="1" connect="1" arrows="1" fold="1" page="1" pageScale="1" pageWidth="850" pageHeight="1100" math="0" shadow="0">
      <root>
        <mxCell id="0" />
        <mxCell id="1" parent="0" />
        <mxCell id="ZNN5YwVmyNbgKoJqNg8N-4" style="edgeStyle=orthogonalEdgeStyle;rounded=0;orthogonalLoop=1;jettySize=auto;html=1;entryX=0.5;entryY=0;entryDx=0;entryDy=0;" edge="1" parent="1" source="ZNN5YwVmyNbgKoJqNg8N-1" target="ZNN5YwVmyNbgKoJqNg8N-3">
          <mxGeometry relative="1" as="geometry" />
        </mxCell>
        <mxCell id="ZNN5YwVmyNbgKoJqNg8N-1" value="INICIO" style="ellipse;whiteSpace=wrap;html=1;" vertex="1" parent="1">
          <mxGeometry x="365" y="30" width="120" height="80" as="geometry" />
        </mxCell>
        <mxCell id="ZNN5YwVmyNbgKoJqNg8N-2" value="FIN" style="ellipse;whiteSpace=wrap;html=1;" vertex="1" parent="1">
          <mxGeometry x="360" y="770" width="120" height="80" as="geometry" />
        </mxCell>
        <mxCell id="ZNN5YwVmyNbgKoJqNg8N-3" value="Entregar el INE" style="rounded=0;whiteSpace=wrap;html=1;" vertex="1" parent="1">
          <mxGeometry x="365" y="150" width="120" height="60" as="geometry" />
        </mxCell>
        <mxCell id="ZNN5YwVmyNbgKoJqNg8N-8" style="edgeStyle=orthogonalEdgeStyle;rounded=0;orthogonalLoop=1;jettySize=auto;html=1;entryX=0.5;entryY=0;entryDx=0;entryDy=0;" edge="1" parent="1" source="ZNN5YwVmyNbgKoJqNg8N-5" target="ZNN5YwVmyNbgKoJqNg8N-7">
          <mxGeometry relative="1" as="geometry" />
        </mxCell>
        <mxCell id="ZNN5YwVmyNbgKoJqNg8N-5" value="Buscar inicial apellido" style="rounded=0;whiteSpace=wrap;html=1;" vertex="1" parent="1">
          <mxGeometry x="360" y="240" width="120" height="60" as="geometry" />
        </mxCell>
        <mxCell id="ZNN5YwVmyNbgKoJqNg8N-6" style="edgeStyle=orthogonalEdgeStyle;rounded=0;orthogonalLoop=1;jettySize=auto;html=1;entryX=0.544;entryY=-0.012;entryDx=0;entryDy=0;entryPerimeter=0;" edge="1" parent="1" source="ZNN5YwVmyNbgKoJqNg8N-3" target="ZNN5YwVmyNbgKoJqNg8N-5">
          <mxGeometry relative="1" as="geometry" />
        </mxCell>
        <mxCell id="ZNN5YwVmyNbgKoJqNg8N-12" style="edgeStyle=orthogonalEdgeStyle;rounded=0;orthogonalLoop=1;jettySize=auto;html=1;entryX=0.5;entryY=0;entryDx=0;entryDy=0;" edge="1" parent="1" source="ZNN5YwVmyNbgKoJqNg8N-7" target="ZNN5YwVmyNbgKoJqNg8N-9">
          <mxGeometry relative="1" as="geometry" />
        </mxCell>
        <mxCell id="ZNN5YwVmyNbgKoJqNg8N-15" style="edgeStyle=orthogonalEdgeStyle;rounded=0;orthogonalLoop=1;jettySize=auto;html=1;entryX=0.5;entryY=0;entryDx=0;entryDy=0;" edge="1" parent="1" source="ZNN5YwVmyNbgKoJqNg8N-7" target="ZNN5YwVmyNbgKoJqNg8N-14">
          <mxGeometry relative="1" as="geometry" />
        </mxCell>
        <mxCell id="ZNN5YwVmyNbgKoJqNg8N-7" value="Validar INE" style="rhombus;whiteSpace=wrap;html=1;" vertex="1" parent="1">
          <mxGeometry x="360" y="330" width="120" height="80" as="geometry" />
        </mxCell>
        <mxCell id="ZNN5YwVmyNbgKoJqNg8N-9" value="No podemos votar" style="rounded=0;whiteSpace=wrap;html=1;" vertex="1" parent="1">
          <mxGeometry x="210" y="500" width="120" height="60" as="geometry" />
        </mxCell>
        <mxCell id="ZNN5YwVmyNbgKoJqNg8N-10" value="No" style="text;html=1;align=center;verticalAlign=middle;whiteSpace=wrap;rounded=0;" vertex="1" parent="1">
          <mxGeometry x="290" y="340" width="60" height="30" as="geometry" />
        </mxCell>
        <mxCell id="ZNN5YwVmyNbgKoJqNg8N-11" value="Si" style="text;html=1;align=center;verticalAlign=middle;whiteSpace=wrap;rounded=0;" vertex="1" parent="1">
          <mxGeometry x="490" y="340" width="60" height="30" as="geometry" />
        </mxCell>
        <mxCell id="ZNN5YwVmyNbgKoJqNg8N-13" style="edgeStyle=orthogonalEdgeStyle;rounded=0;orthogonalLoop=1;jettySize=auto;html=1;entryX=0.491;entryY=-0.022;entryDx=0;entryDy=0;entryPerimeter=0;" edge="1" parent="1" source="ZNN5YwVmyNbgKoJqNg8N-9" target="ZNN5YwVmyNbgKoJqNg8N-2">
          <mxGeometry relative="1" as="geometry">
            <Array as="points">
              <mxPoint x="270" y="680" />
              <mxPoint x="419" y="680" />
            </Array>
          </mxGeometry>
        </mxCell>
        <mxCell id="ZNN5YwVmyNbgKoJqNg8N-17" style="edgeStyle=orthogonalEdgeStyle;rounded=0;orthogonalLoop=1;jettySize=auto;html=1;entryX=0.5;entryY=0;entryDx=0;entryDy=0;" edge="1" parent="1" source="ZNN5YwVmyNbgKoJqNg8N-14" target="ZNN5YwVmyNbgKoJqNg8N-16">
          <mxGeometry relative="1" as="geometry" />
        </mxCell>
        <mxCell id="ZNN5YwVmyNbgKoJqNg8N-14" value="Rellenamos las papeletas" style="rounded=0;whiteSpace=wrap;html=1;" vertex="1" parent="1">
          <mxGeometry x="510" y="400" width="120" height="60" as="geometry" />
        </mxCell>
        <mxCell id="ZNN5YwVmyNbgKoJqNg8N-19" style="edgeStyle=orthogonalEdgeStyle;rounded=0;orthogonalLoop=1;jettySize=auto;html=1;entryX=0.5;entryY=0;entryDx=0;entryDy=0;" edge="1" parent="1" source="ZNN5YwVmyNbgKoJqNg8N-16" target="ZNN5YwVmyNbgKoJqNg8N-18">
          <mxGeometry relative="1" as="geometry" />
        </mxCell>
        <mxCell id="ZNN5YwVmyNbgKoJqNg8N-16" value="Depositar en las urnas" style="rounded=0;whiteSpace=wrap;html=1;" vertex="1" parent="1">
          <mxGeometry x="510" y="500" width="120" height="60" as="geometry" />
        </mxCell>
        <mxCell id="ZNN5YwVmyNbgKoJqNg8N-20" style="edgeStyle=orthogonalEdgeStyle;rounded=0;orthogonalLoop=1;jettySize=auto;html=1;endArrow=none;startFill=0;" edge="1" parent="1" source="ZNN5YwVmyNbgKoJqNg8N-18">
          <mxGeometry relative="1" as="geometry">
            <mxPoint x="360" y="680" as="targetPoint" />
            <Array as="points">
              <mxPoint x="570" y="680" />
              <mxPoint x="420" y="680" />
            </Array>
          </mxGeometry>
        </mxCell>
        <mxCell id="ZNN5YwVmyNbgKoJqNg8N-18" value="Nos sellan el dedo con tinta indeleble" style="rounded=0;whiteSpace=wrap;html=1;" vertex="1" parent="1">
          <mxGeometry x="510" y="590" width="120" height="60" as="geometry" />
        </mxCell>
        <mxCell id="ZNN5YwVmyNbgKoJqNg8N-22" value="" style="rounded=0;whiteSpace=wrap;html=1;fillColor=none;strokeColor=#F1E3F7;" vertex="1" parent="1">
          <mxGeometry width="840" height="890" as="geometry" />
        </mxCell>
      </root>
    </mxGraphModel>
  </diagram>
</mxfile>
